<?xml version="1.0" encoding="UTF-8" standalone="no"?>
<!DOCTYPE svg PUBLIC "-//W3C//DTD SVG 1.1//EN" "http://www.w3.org/Graphics/SVG/1.1/DTD/svg11.dtd">
<svg width="100%" height="100%" viewBox="0 0 4034 2391" version="1.1" xmlns="http://www.w3.org/2000/svg" xmlns:xlink="http://www.w3.org/1999/xlink" xml:space="preserve" xmlns:serif="http://www.serif.com/" style="fill-rule:evenodd;clip-rule:evenodd;stroke-linejoin:round;stroke-miterlimit:2;">
    <g transform="matrix(1,0,0,1,-32638.1,4789.21)">
        <g transform="matrix(4.16667,0,0,4.16667,32520.5,-5735.64)">
            <path d="M28.26,530.32L72.08,409.35C72.14,409.177 72.301,409.06 72.48,409.06L200.44,409.06C200.569,409.063 200.674,409.171 200.674,409.3C200.674,409.327 200.669,409.354 200.66,409.38L190.3,437.98C190.179,438.31 189.862,438.531 189.51,438.53L106.56,438.53C106.237,438.529 105.946,438.735 105.84,439.04L99.76,455.81C99.749,455.842 99.743,455.876 99.743,455.91C99.743,456.079 99.881,456.218 100.05,456.22L175.35,456.22C175.531,456.221 175.679,456.369 175.679,456.55C175.679,456.587 175.672,456.625 175.66,456.66L165.98,483.39C165.884,483.653 165.636,483.829 165.36,483.83L89.9,483.83C89.654,483.83 89.434,483.983 89.35,484.21C84.517,497.77 80.677,508.38 77.83,516.04C76.56,519.46 73.63,521.65 70.21,523.38C65.377,525.827 61.43,527.82 58.37,529.36C56.43,530.34 54.937,530.85 53.89,530.89C49.357,531.063 40.963,531.087 28.71,530.96C28.448,530.959 28.233,530.742 28.233,530.48C28.233,530.425 28.242,530.371 28.26,530.32ZM227.09,477.04C223.177,487.753 218.43,500.773 212.85,516.1C211.903,518.7 210.103,520.727 207.45,522.18C202.863,524.7 198.207,527.12 193.48,529.44C191.333,530.5 189.26,531.027 187.26,531.02L163.85,531.01C163.832,531.01 163.814,531.008 163.797,531.005C163.63,530.975 163.516,530.817 163.544,530.655C163.548,530.636 163.553,530.618 163.56,530.6C176.767,494.16 184.937,471.647 188.07,463.06C191.983,452.347 196.73,439.327 202.31,424C203.257,421.4 205.057,419.373 207.71,417.92C212.297,415.4 216.953,412.98 221.68,410.66C223.827,409.6 225.9,409.073 227.9,409.08L251.31,409.09C251.328,409.09 251.346,409.092 251.363,409.095C251.53,409.125 251.644,409.283 251.616,409.445C251.612,409.464 251.607,409.482 251.6,409.5C238.393,445.933 230.223,468.447 227.09,477.04ZM287.68,462.28C287.665,462.257 287.647,462.237 287.626,462.22C287.52,462.132 287.364,462.145 287.281,462.246C287.263,462.268 287.249,462.293 287.24,462.32L262.52,530.57C262.419,530.852 262.15,531.041 261.85,531.04L218.7,531.04C218.525,531.04 218.38,530.895 218.38,530.72C218.38,530.682 218.387,530.645 218.4,530.61L262.23,409.59C262.344,409.273 262.649,409.06 262.99,409.06L302.05,409.06C302.395,409.06 302.713,409.248 302.88,409.55L342,480.72C342.016,480.749 342.038,480.775 342.063,480.797C342.179,480.897 342.355,480.887 342.451,480.774C342.473,480.75 342.489,480.721 342.5,480.69L368.33,409.38C368.409,409.169 368.609,409.029 368.83,409.03L412.15,409.03C412.167,409.03 412.185,409.032 412.202,409.035C412.364,409.064 412.472,409.225 412.442,409.393C412.439,409.409 412.435,409.425 412.43,409.44C393.203,462.467 380.527,497.45 374.4,514.39C372.967,518.37 370.557,521.2 367.17,522.88C364.143,524.387 359.347,526.797 352.78,530.11C351.616,530.695 350.332,531 349.03,531L328.91,531C328.477,531.001 328.073,530.768 327.85,530.39L287.68,462.28ZM371.6,530.39C386.053,500.843 400.857,470.553 416.01,439.52C420.37,430.6 424.85,426.55 433.98,422.17C438.96,419.783 447.11,415.787 458.43,410.18C459.903,409.453 462.093,409.09 465,409.09C500.033,409.05 519.177,409.057 522.43,409.11C525.263,409.157 527.7,410.137 529.74,412.05C537.82,419.65 543.747,425.133 547.52,428.5C550.473,431.147 552.21,433.383 552.73,435.21C553.55,438.11 553.46,440.957 552.46,443.75C543.82,467.683 533.343,496.617 521.03,530.55C520.933,530.819 520.676,531 520.39,531L477.34,531L477.335,531C477.11,531 476.925,530.815 476.925,530.59C476.925,530.542 476.934,530.495 476.95,530.45L484.87,508.59C484.881,508.558 484.887,508.524 484.887,508.49C484.887,508.326 484.753,508.192 484.59,508.19L442.94,508.19C442.651,508.19 442.374,508.074 442.17,507.87L432.39,498.08C432.326,498.016 432.24,497.98 432.15,497.98C432.016,497.98 431.895,498.059 431.84,498.18L416.06,530.48C415.907,530.798 415.583,531.001 415.23,531L371.98,531L371.975,531C371.744,531 371.555,530.81 371.555,530.58C371.555,530.514 371.57,530.449 371.6,530.39ZM441.34,481.32L494.21,481.32C494.535,481.319 494.827,481.115 494.94,480.81C502.033,461.19 505.643,451.23 505.77,450.93C507.31,447.203 507.79,444.46 507.21,442.7C506.297,439.94 504.053,438.557 500.48,438.55C485.293,438.523 475.583,438.52 471.35,438.54C464.91,438.57 460.07,442.54 457.28,448.01C450.36,461.603 444.907,472.48 440.92,480.64C440.887,480.705 440.87,480.777 440.87,480.85C440.87,481.108 441.082,481.32 441.34,481.32ZM597.2,462.26C597.185,462.237 597.167,462.217 597.146,462.2C597.04,462.112 596.884,462.125 596.801,462.226C596.783,462.248 596.769,462.273 596.76,462.3L572.01,530.51C571.909,530.792 571.64,530.981 571.34,530.98L528.21,530.95C528.035,530.95 527.89,530.805 527.89,530.63C527.89,530.592 527.897,530.555 527.91,530.52L571.79,409.58C571.904,409.263 572.209,409.05 572.55,409.05L611.59,409.08C611.935,409.08 612.253,409.268 612.42,409.57L651.48,480.73C651.496,480.759 651.518,480.785 651.543,480.807C651.659,480.907 651.835,480.897 651.931,480.784C651.953,480.76 651.969,480.731 651.98,480.7L677.84,409.43C677.919,409.219 678.119,409.079 678.34,409.08L721.64,409.11C721.657,409.11 721.675,409.112 721.692,409.115C721.854,409.144 721.962,409.305 721.932,409.473C721.929,409.489 721.925,409.505 721.92,409.52C702.673,462.507 689.983,497.467 683.85,514.4C682.417,518.373 680.007,521.2 676.62,522.88C673.593,524.387 668.797,526.793 662.23,530.1C661.066,530.685 659.782,530.99 658.48,530.99L638.37,530.97C637.937,530.971 637.533,530.738 637.31,530.36L597.2,462.26ZM825.96,501.55C825.975,501.55 825.991,501.552 826.006,501.554C826.168,501.582 826.28,501.734 826.253,501.891C826.25,501.908 826.246,501.924 826.24,501.94L815.9,530.48C815.787,530.785 815.495,530.989 815.17,530.99C762.257,531.017 730.787,531.01 720.76,530.97C718.43,530.96 716.2,529.98 714.16,528.3C706.04,521.647 701.187,517.73 699.6,516.55C692.21,511.05 693.99,504.54 696.87,496.69C705.637,472.837 710.393,459.84 711.14,457.7C715.353,445.613 718.663,437.69 721.07,433.93C730.11,419.8 744.16,412.75 760.79,409.99C764.57,409.363 770.39,409.053 778.25,409.06C830.337,409.073 857.407,409.073 859.46,409.06C859.629,409.062 859.767,409.201 859.767,409.37C859.767,409.404 859.761,409.438 859.75,409.47L849.32,438.26C849.265,438.416 849.116,438.521 848.95,438.52C805.01,438.54 780.797,438.533 776.31,438.5C771.863,438.46 768.903,438.883 767.43,439.77C762.84,442.56 760.95,445.13 758.92,450.78C756.487,457.533 751.453,471.38 743.82,492.32C741.88,497.62 745.12,501.54 750.76,501.54C782.953,501.527 808.02,501.53 825.96,501.55ZM996.24,409.66L985.92,438.17C985.844,438.384 985.635,438.529 985.4,438.53L899.44,438.53C899.117,438.529 898.826,438.735 898.72,439.04L892.7,455.64C892.682,455.688 892.673,455.739 892.673,455.79C892.673,456.026 892.867,456.22 893.103,456.22L893.11,456.22L971.02,456.22C971.206,456.221 971.358,456.374 971.358,456.56C971.358,456.597 971.352,456.635 971.34,456.67L961.7,483.29C961.579,483.614 961.271,483.83 960.93,483.83L882.96,483.83C882.599,483.831 882.275,484.055 882.15,484.39L878.96,493.2C878.874,493.445 878.827,493.702 878.82,493.96C878.613,498.967 880.847,501.48 885.52,501.5C897.627,501.547 923.3,501.553 962.54,501.52C962.698,501.521 962.828,501.652 962.828,501.81C962.828,501.844 962.822,501.878 962.81,501.91L952.4,530.66C952.328,530.863 952.135,531 951.92,531C918.953,531.007 888.23,531.007 859.75,531C856.837,531 854.633,530.63 853.14,529.89C852.834,529.737 852.543,529.553 852.27,529.34C850.317,527.807 844.493,523.09 834.8,515.19C830.04,511.32 830.65,505.04 832.55,499.8C843.99,468.28 854.91,438.153 865.31,409.42C865.389,409.211 865.592,409.071 865.82,409.07L995.83,409.07C996.07,409.072 996.266,409.27 996.266,409.51C996.266,409.561 996.257,409.612 996.24,409.66ZM562.49,401.04C562.444,401.153 562.334,401.227 562.212,401.227C562.086,401.227 561.973,401.148 561.93,401.03C560.17,396.637 556.877,389.313 552.05,379.06C547.71,369.833 542.687,361.633 536.98,354.46C526.43,341.2 512.14,337.04 495.53,339.33C476.5,341.95 455.15,350.13 437.75,357.51C437.672,357.544 437.589,357.561 437.504,357.561C437.216,357.561 436.965,357.36 436.9,357.08L436.88,356.97C436.783,356.55 437.005,356.12 437.4,355.96C449.48,351.12 461.013,345.88 472,340.24C484.22,333.97 496.81,325.99 504.35,314.38C514.08,299.41 509.71,279.61 504.45,263.77C500.61,252.183 496.193,240.483 491.2,228.67C491.008,228.212 491.112,227.683 491.46,227.34L491.51,227.3C491.609,227.2 491.745,227.143 491.886,227.143C492.104,227.143 492.301,227.277 492.38,227.48C499.28,244.34 505.99,260.48 515.18,275.27C519.653,282.47 524.797,288.21 530.61,292.49C542.8,301.44 559.69,300.54 574.33,296.8C589.07,293.027 604.443,287.677 620.45,280.75L620.457,280.747C620.851,280.58 621.311,280.762 621.476,281.151L621.48,281.16L621.51,281.25C621.548,281.343 621.568,281.443 621.568,281.543C621.568,281.859 621.374,282.144 621.08,282.26C605.08,288.55 586.93,296.87 571.54,306.77C567.84,309.15 563.97,312.373 559.93,316.44C545.61,330.86 546.49,349.53 551.97,368.03C554.963,378.13 558.443,388.04 562.41,397.76C562.85,398.82 562.95,400.01 562.49,401.04ZM621.9,249.75C590.953,257.383 560.37,266.83 530.15,278.09C529.476,278.343 528.71,278.118 528.28,277.54L524.11,271.93C524.079,271.889 524.052,271.844 524.029,271.798C523.823,271.38 524.002,270.864 524.426,270.656C524.472,270.633 524.52,270.614 524.57,270.6C556.477,261.527 588.917,254.473 621.89,249.44C621.897,249.439 621.904,249.438 621.911,249.438C621.97,249.438 622.021,249.482 622.03,249.54C622.034,249.554 622.036,249.569 622.036,249.584C622.036,249.664 621.979,249.734 621.9,249.75ZM259.65,397.03C259.556,397.023 259.483,396.944 259.483,396.85C259.483,396.796 259.507,396.744 259.55,396.71C331.87,344.99 413.61,305.67 498.48,278.46C498.491,278.457 498.502,278.454 498.513,278.451C498.764,278.394 499.017,278.549 499.073,278.795C499.076,278.806 499.078,278.818 499.08,278.83L500.7,289.02C500.753,289.352 500.569,289.678 500.26,289.8C432.92,317.23 368.41,352.86 310.97,397.29C310.937,397.316 310.899,397.33 310.86,397.33L259.65,397.03ZM566.38,342.53L566.38,342.46C566.377,342.434 566.408,342.407 566.45,342.4C616.88,330.13 668.57,322.79 720.49,322.95C740.677,323.017 760.797,324.67 780.85,327.91C821.37,334.45 866.36,350.63 890.01,386.45C891.23,388.29 892.723,391.713 894.49,396.72C894.504,396.759 894.511,396.799 894.511,396.84C894.511,397.037 894.348,397.2 894.151,397.2L894.15,397.2L817.5,397.2C816.702,397.201 815.95,396.817 815.48,396.17C800.64,375.82 777.55,361.76 753.89,353.33C718.24,340.62 680.03,336.52 642.24,336.85C617.167,337.063 591.923,338.997 566.51,342.65C566.499,342.652 566.487,342.652 566.476,342.651C566.416,342.645 566.37,342.6 566.375,342.551C566.375,342.544 566.377,342.537 566.38,342.53ZM830.51,471.16C830.49,471.153 830.467,471.15 830.44,471.15L830.434,471.15C830.401,471.148 830.377,471.114 830.379,471.076L830.38,471.07C831.693,464.79 832.413,458.067 832.54,450.9C832.545,450.536 832.846,450.24 833.21,450.24L837.53,450.24C837.554,450.24 837.577,450.243 837.601,450.247C837.827,450.288 837.981,450.503 837.941,450.725C837.937,450.75 837.93,450.776 837.92,450.8C834.147,461.007 831.717,467.743 830.63,471.01L830.629,471.011C830.597,471.105 830.544,471.172 830.513,471.162L830.51,471.16ZM443.65,690.86C386.59,704.77 326.66,712.4 268.26,708.71C236.35,706.7 203.88,700.64 175.21,687.28C157.63,679.1 141.77,667.59 129.73,651.78C127.103,648.327 125.26,645.25 124.2,642.55C122.733,638.81 120.427,633.227 117.28,625.8C115.507,621.613 114.343,617.783 113.79,614.31C109.69,588.69 116.31,562.58 127.47,539.46C134.67,524.533 143.6,510.05 154.26,496.01C154.506,495.688 154.887,495.499 155.29,495.5L163.53,495.5C163.671,495.502 163.786,495.619 163.786,495.76C163.786,495.791 163.781,495.821 163.77,495.85L146.93,542.34C146.919,542.372 146.913,542.406 146.913,542.44C146.913,542.604 147.047,542.738 147.21,542.74L190.47,542.74C190.656,542.741 190.808,542.894 190.808,543.08C190.808,543.117 190.802,543.155 190.79,543.19C179.54,574.26 179.55,607.45 198.37,635.35C218.9,665.79 257.78,681.59 292.27,688.71C331.27,696.76 371.72,697.47 411.62,694.06C416.387,693.653 427.053,692.543 443.62,690.73C443.656,690.733 443.684,690.764 443.684,690.8C443.684,690.824 443.671,690.847 443.65,690.86ZM859.22,543.04C852.207,551.907 845.597,559.717 839.39,566.47C794.97,614.77 739.49,654.61 682.22,686.73C629.433,716.33 573.8,740.607 515.32,759.56L515.296,759.567C514.864,759.694 514.404,759.438 514.276,759.001L514.27,758.98L511.74,749.17C511.662,748.862 511.825,748.54 512.12,748.42C573.28,723.19 631.77,691.6 684.54,653.55C708.007,636.623 729.637,618.587 749.43,599.44C767.21,582.25 783.97,563.22 797.89,543.04C798.016,542.864 798.221,542.76 798.44,542.76L823.33,542.76C823.653,542.761 823.944,542.555 824.05,542.25L829.74,526.53C829.773,526.44 829.86,526.379 829.956,526.379C830.008,526.379 830.059,526.397 830.1,526.43C837.507,532.383 841.453,535.567 841.94,535.98C847.44,540.67 852.42,542.64 859.03,542.64C859.057,542.641 859.085,542.646 859.111,542.656C859.24,542.702 859.309,542.843 859.264,542.967C859.254,542.993 859.239,543.018 859.22,543.04ZM444.97,619.6C445.423,619.413 445.73,619.52 445.89,619.92C452.69,636.5 460.16,654.58 470.14,669.66C474.527,676.287 479.727,681.497 485.74,685.29C497.79,692.89 513.46,691.5 527.44,687.94C542.89,684.01 557.13,678.52 572.33,672.33C572.507,672.257 572.71,672.271 572.88,672.37C573.04,672.457 573.157,672.587 573.23,672.76C573.303,672.933 573.313,673.11 573.26,673.29C573.206,673.479 573.069,673.631 572.89,673.7C557.73,679.97 543.74,686.07 529.98,694.13C517.53,701.42 505.41,711.44 502.17,725.31C500.557,732.237 500.517,739.597 502.05,747.39C505.54,765.14 512.93,783.25 519.74,799.83C519.907,800.23 519.763,800.52 519.31,800.7C518.863,800.887 518.557,800.78 518.39,800.38C511.59,783.8 504.12,765.72 494.14,750.64C489.753,744.013 484.553,738.803 478.54,735.01C466.49,727.41 450.82,728.8 436.84,732.36C421.39,736.29 407.15,741.78 391.95,747.97C391.775,748.047 391.571,748.035 391.4,747.94C391.24,747.847 391.123,747.713 391.05,747.54C390.983,747.367 390.973,747.193 391.02,747.02C391.074,746.831 391.211,746.679 391.39,746.61C406.56,740.33 420.55,734.24 434.3,726.18C446.75,718.89 458.88,708.87 462.11,694.99C463.723,688.07 463.763,680.71 462.23,672.91C458.74,655.17 451.35,637.05 444.54,620.48C444.38,620.08 444.523,619.787 444.97,619.6ZM387.62,789.56C421.413,781.107 454.703,770.643 487.49,758.17C487.788,758.053 488.13,758.173 488.29,758.45L492.68,765.9C492.717,765.963 492.737,766.035 492.737,766.109C492.737,766.287 492.62,766.446 492.45,766.5C457.417,776.853 422.483,784.587 387.65,789.7C387.645,789.701 387.64,789.702 387.635,789.702C387.596,789.702 387.563,789.669 387.563,789.63C387.563,789.596 387.587,789.567 387.62,789.56Z" style="fill:rgb(255,255,249);"/>
        </g>
    </g>
</svg>
