<?xml version="1.0" encoding="UTF-8" standalone="no"?>
<!DOCTYPE svg PUBLIC "-//W3C//DTD SVG 1.1//EN" "http://www.w3.org/Graphics/SVG/1.1/DTD/svg11.dtd">
<svg width="100%" height="100%" viewBox="0 0 4175 2466" version="1.1" xmlns="http://www.w3.org/2000/svg" xmlns:xlink="http://www.w3.org/1999/xlink" xml:space="preserve" xmlns:serif="http://www.serif.com/" style="fill-rule:evenodd;clip-rule:evenodd;stroke-linejoin:round;stroke-miterlimit:2;">
    <g transform="matrix(1,0,0,1,-34655.4,19774.2)">
        <g transform="matrix(4.16667,0,0,4.16667,34607.6,-20682.8)">
            <path d="M28.26,530.32L72.08,409.35C72.14,409.177 72.301,409.06 72.48,409.06L200.44,409.06C200.569,409.063 200.674,409.171 200.674,409.3C200.674,409.327 200.669,409.354 200.66,409.38L190.3,437.98C190.179,438.31 189.862,438.531 189.51,438.53L106.56,438.53C106.237,438.529 105.946,438.735 105.84,439.04L99.76,455.81C99.749,455.842 99.743,455.876 99.743,455.91C99.743,456.079 99.881,456.218 100.05,456.22L175.35,456.22C175.531,456.221 175.679,456.369 175.679,456.55C175.679,456.587 175.672,456.625 175.66,456.66L165.98,483.39C165.884,483.653 165.636,483.829 165.36,483.83L89.9,483.83C89.654,483.83 89.434,483.983 89.35,484.21C84.517,497.77 80.677,508.38 77.83,516.04C76.56,519.46 73.63,521.65 70.21,523.38C65.377,525.827 61.43,527.82 58.37,529.36C56.43,530.34 54.937,530.85 53.89,530.89C49.357,531.063 40.963,531.087 28.71,530.96C28.448,530.959 28.233,530.742 28.233,530.48C28.233,530.425 28.242,530.371 28.26,530.32Z" style="fill:rgb(255,255,249);fill-rule:nonzero;"/>
        </g>
        <g transform="matrix(4.16667,0,0,4.16667,34607.6,-20682.8)">
            <path d="M227.09,477.04C223.177,487.753 218.43,500.773 212.85,516.1C211.903,518.7 210.103,520.727 207.45,522.18C202.863,524.7 198.207,527.12 193.48,529.44C191.333,530.5 189.26,531.027 187.26,531.02C171.687,531.013 163.883,531.01 163.85,531.01C163.832,531.01 163.814,531.008 163.797,531.005C163.63,530.975 163.516,530.817 163.544,530.655C163.548,530.636 163.553,530.618 163.56,530.6C176.767,494.16 184.937,471.647 188.07,463.06C191.983,452.347 196.73,439.327 202.31,424C203.257,421.4 205.057,419.373 207.71,417.92C212.297,415.4 216.953,412.98 221.68,410.66C223.827,409.6 225.9,409.073 227.9,409.08C243.473,409.087 251.277,409.09 251.31,409.09C251.328,409.09 251.346,409.092 251.363,409.095C251.53,409.125 251.644,409.283 251.616,409.445C251.612,409.464 251.607,409.482 251.6,409.5C238.393,445.933 230.223,468.447 227.09,477.04Z" style="fill:rgb(255,255,249);fill-rule:nonzero;"/>
        </g>
        <g transform="matrix(4.16667,0,0,4.16667,34607.6,-20682.8)">
            <path d="M287.68,462.28C287.665,462.257 287.647,462.237 287.626,462.22C287.52,462.132 287.364,462.145 287.281,462.246C287.263,462.268 287.249,462.293 287.24,462.32L262.52,530.57C262.419,530.852 262.15,531.041 261.85,531.04L218.7,531.04C218.525,531.04 218.38,530.895 218.38,530.72C218.38,530.682 218.387,530.645 218.4,530.61L262.23,409.59C262.344,409.273 262.649,409.06 262.99,409.06L302.05,409.06C302.395,409.06 302.713,409.248 302.88,409.55L342,480.72C342.016,480.749 342.038,480.775 342.063,480.797C342.179,480.897 342.355,480.887 342.451,480.774C342.473,480.75 342.489,480.721 342.5,480.69L368.33,409.38C368.409,409.169 368.609,409.029 368.83,409.03L412.15,409.03C412.167,409.03 412.185,409.032 412.202,409.035C412.364,409.064 412.472,409.225 412.442,409.393C412.439,409.409 412.435,409.425 412.43,409.44C393.203,462.467 380.527,497.45 374.4,514.39C372.967,518.37 370.557,521.2 367.17,522.88C364.143,524.387 359.347,526.797 352.78,530.11C351.616,530.695 350.332,531 349.03,531L328.91,531C328.477,531.001 328.073,530.768 327.85,530.39L287.68,462.28Z" style="fill:rgb(255,255,249);fill-rule:nonzero;"/>
        </g>
        <g transform="matrix(4.16667,0,0,4.16667,34607.6,-20682.8)">
            <path d="M371.6,530.39C386.053,500.843 400.857,470.553 416.01,439.52C420.37,430.6 424.85,426.55 433.98,422.17C438.96,419.783 447.11,415.787 458.43,410.18C459.903,409.453 462.093,409.09 465,409.09C500.033,409.05 519.177,409.057 522.43,409.11C525.263,409.157 527.7,410.137 529.74,412.05C537.82,419.65 543.747,425.133 547.52,428.5C550.473,431.147 552.21,433.383 552.73,435.21C553.55,438.11 553.46,440.957 552.46,443.75C543.82,467.683 533.343,496.617 521.03,530.55C520.933,530.819 520.676,531 520.39,531L477.34,531C477.338,531 477.337,531 477.335,531C477.11,531 476.925,530.815 476.925,530.59C476.925,530.542 476.934,530.495 476.95,530.45L484.87,508.59C484.881,508.558 484.887,508.524 484.887,508.49C484.887,508.326 484.753,508.192 484.59,508.19L442.94,508.19C442.651,508.19 442.374,508.074 442.17,507.87L432.39,498.08C432.326,498.016 432.24,497.98 432.15,497.98C432.016,497.98 431.895,498.059 431.84,498.18L416.06,530.48C415.907,530.798 415.583,531.001 415.23,531L371.98,531C371.978,531 371.976,531 371.975,531C371.744,531 371.555,530.81 371.555,530.58C371.555,530.514 371.57,530.449 371.6,530.39ZM441.34,481.32L494.21,481.32C494.535,481.319 494.827,481.115 494.94,480.81C502.033,461.19 505.643,451.23 505.77,450.93C507.31,447.203 507.79,444.46 507.21,442.7C506.297,439.94 504.053,438.557 500.48,438.55C485.293,438.523 475.583,438.52 471.35,438.54C464.91,438.57 460.07,442.54 457.28,448.01C450.36,461.603 444.907,472.48 440.92,480.64C440.887,480.705 440.87,480.777 440.87,480.85C440.87,481.108 441.082,481.32 441.34,481.32Z" style="fill:rgb(255,255,249);fill-rule:nonzero;"/>
        </g>
        <g transform="matrix(4.16667,0,0,4.16667,34607.6,-20682.8)">
            <path d="M597.2,462.26C597.185,462.237 597.167,462.217 597.146,462.2C597.04,462.112 596.884,462.125 596.801,462.226C596.783,462.248 596.769,462.273 596.76,462.3L572.01,530.51C571.909,530.792 571.64,530.981 571.34,530.98L528.21,530.95C528.035,530.95 527.89,530.805 527.89,530.63C527.89,530.592 527.897,530.555 527.91,530.52L571.79,409.58C571.904,409.263 572.209,409.05 572.55,409.05L611.59,409.08C611.935,409.08 612.253,409.268 612.42,409.57L651.48,480.73C651.496,480.759 651.518,480.785 651.543,480.807C651.659,480.907 651.835,480.897 651.931,480.784C651.953,480.76 651.969,480.731 651.98,480.7L677.84,409.43C677.919,409.219 678.119,409.079 678.34,409.08L721.64,409.11C721.657,409.11 721.675,409.112 721.692,409.115C721.854,409.144 721.962,409.305 721.932,409.473C721.929,409.489 721.925,409.505 721.92,409.52C702.673,462.507 689.983,497.467 683.85,514.4C682.417,518.373 680.007,521.2 676.62,522.88C673.593,524.387 668.797,526.793 662.23,530.1C661.066,530.685 659.782,530.99 658.48,530.99L638.37,530.97C637.937,530.971 637.533,530.738 637.31,530.36L597.2,462.26Z" style="fill:rgb(255,255,249);fill-rule:nonzero;"/>
        </g>
        <g transform="matrix(4.16667,0,0,4.16667,34607.6,-20682.8)">
            <path d="M825.96,501.55C825.975,501.55 825.991,501.552 826.006,501.554C826.168,501.582 826.28,501.734 826.253,501.891C826.25,501.908 826.246,501.924 826.24,501.94L815.9,530.48C815.787,530.785 815.495,530.989 815.17,530.99C762.257,531.017 730.787,531.01 720.76,530.97C718.43,530.96 716.2,529.98 714.16,528.3C706.04,521.647 701.187,517.73 699.6,516.55C692.21,511.05 693.99,504.54 696.87,496.69C705.637,472.837 710.393,459.84 711.14,457.7C715.353,445.613 718.663,437.69 721.07,433.93C730.11,419.8 744.16,412.75 760.79,409.99C764.57,409.363 770.39,409.053 778.25,409.06C830.337,409.073 857.407,409.073 859.46,409.06C859.629,409.062 859.767,409.201 859.767,409.37C859.767,409.404 859.761,409.438 859.75,409.47L849.32,438.26C849.265,438.416 849.116,438.521 848.95,438.52C805.01,438.54 780.797,438.533 776.31,438.5C771.863,438.46 768.903,438.883 767.43,439.77C762.84,442.56 760.95,445.13 758.92,450.78C756.487,457.533 751.453,471.38 743.82,492.32C741.88,497.62 745.12,501.54 750.76,501.54C782.953,501.527 808.02,501.53 825.96,501.55Z" style="fill:rgb(255,255,249);fill-rule:nonzero;"/>
        </g>
        <g transform="matrix(4.16667,0,0,4.16667,34607.6,-20682.8)">
            <path d="M996.24,409.66L985.92,438.17C985.844,438.384 985.635,438.529 985.4,438.53L899.44,438.53C899.117,438.529 898.826,438.735 898.72,439.04L892.7,455.64C892.682,455.688 892.673,455.739 892.673,455.79C892.673,456.026 892.867,456.22 893.103,456.22C893.105,456.22 893.108,456.22 893.11,456.22L971.02,456.22C971.206,456.221 971.358,456.374 971.358,456.56C971.358,456.597 971.352,456.635 971.34,456.67L961.7,483.29C961.579,483.614 961.271,483.83 960.93,483.83L882.96,483.83C882.599,483.831 882.275,484.055 882.15,484.39L878.96,493.2C878.874,493.445 878.827,493.702 878.82,493.96C878.613,498.967 880.847,501.48 885.52,501.5C897.627,501.547 923.3,501.553 962.54,501.52C962.698,501.521 962.828,501.652 962.828,501.81C962.828,501.844 962.822,501.878 962.81,501.91L952.4,530.66C952.328,530.863 952.135,531 951.92,531C918.953,531.007 888.23,531.007 859.75,531C856.837,531 854.633,530.63 853.14,529.89C852.834,529.737 852.543,529.553 852.27,529.34C850.317,527.807 844.493,523.09 834.8,515.19C830.04,511.32 830.65,505.04 832.55,499.8C843.99,468.28 854.91,438.153 865.31,409.42C865.389,409.211 865.592,409.071 865.82,409.07L995.83,409.07C996.07,409.072 996.266,409.27 996.266,409.51C996.266,409.561 996.257,409.612 996.24,409.66Z" style="fill:rgb(255,255,249);fill-rule:nonzero;"/>
        </g>
        <g transform="matrix(4.16667,0,0,4.16667,34607.6,-20682.8)">
            <path d="M1000,397.23L1013.39,397.312L994.26,449.54C994.098,449.972 993.682,450.26 993.22,450.26L986.66,450.26C986.305,450.26 985.985,450.484 985.86,450.82L971.83,489.57C971.817,489.605 971.81,489.642 971.81,489.68C971.81,489.85 971.95,489.99 972.12,489.99C972.12,489.99 972.12,489.99 972.12,489.99L979.02,490C979.021,490 979.022,490 979.023,490C979.231,490 979.403,490.172 979.403,490.38C979.403,490.424 979.395,490.468 979.38,490.51L960.57,542.43C960.499,542.628 960.31,542.76 960.1,542.76L871.86,542.76C871.375,542.76 870.919,542.987 870.63,543.37C851.1,569.56 827.82,593.22 802.86,614.6C781.047,633.287 757.67,650.747 732.73,666.98C692.337,693.273 649.503,716.193 604.23,735.74C576.41,747.747 547.69,758.653 518.07,768.46C517.837,768.537 517.678,768.756 517.678,769.002C517.678,769.066 517.689,769.129 517.71,769.19C520.55,777.243 523.71,785.373 527.19,793.58C529.28,798.5 530.12,802.45 526.44,806.43C524.52,808.5 520.27,810.1 517.51,809.76C513.883,809.32 511.363,807.41 509.95,804.03C503.183,787.89 498.98,778.32 497.34,775.32C497.218,775.092 496.954,774.979 496.71,775.05C489.93,777.003 483.19,778.887 476.49,780.7C449.737,787.94 422.173,793.797 393.8,798.27C389.393,798.963 386.517,799.027 385.17,798.46C382.497,797.333 380.583,795.42 379.43,792.72C379.291,792.389 379.203,792.038 379.17,791.68C378.617,785.507 381.137,781.693 386.73,780.24C423.13,770.76 454.787,760.813 481.7,750.4C481.818,750.353 481.896,750.239 481.896,750.112C481.896,750.042 481.873,749.975 481.83,749.92C472.53,738.38 459.43,737.28 445.65,739.93C439.91,741.037 435.513,742.06 432.46,743C419.933,746.86 407.197,751.44 394.25,756.74C393.852,756.899 393.431,756.997 393,757.03C386.793,757.457 383.113,754.553 381.96,748.32C381.34,744.993 382.63,741.963 385.83,739.23C386.075,739.018 386.359,738.849 386.67,738.73C395.79,735.203 406.643,730.29 419.23,723.99C427.63,719.79 434.807,715.303 440.76,710.53C443.073,708.67 444.95,706.867 446.39,705.12C448.59,702.46 450.113,700.33 450.96,698.73C450.993,698.666 451.01,698.595 451.01,698.523C451.01,698.282 450.815,698.084 450.579,698.084C450.506,698.084 450.434,698.103 450.37,698.14C447.36,699.76 442.72,700.58 438.71,701.5C393.85,711.85 348.14,718.22 302.28,718.87C283.087,719.143 263.35,718.01 243.07,715.47C221.577,712.777 201.173,707.673 181.86,700.16C157.18,690.55 134.94,675.67 120.02,654C118.44,651.71 117.27,649.88 116.2,647.26C110.927,634.38 108.067,627.447 107.62,626.46C106.313,623.58 105.357,620.177 104.75,616.25C98.04,572.8 117.79,530.35 142.96,496.09C142.984,496.058 143.003,496.023 143.015,495.985C143.076,495.797 142.967,495.591 142.774,495.529C142.737,495.517 142.699,495.51 142.66,495.51L98.3,495.51C97.935,495.51 97.606,495.743 97.48,496.09C93.307,507.777 90.6,515.283 89.36,518.61C87.393,523.883 84.34,528.02 80.2,531.02C78.947,531.927 75.56,533.78 70.04,536.58C64.847,539.207 61.357,540.877 59.57,541.59C57.48,542.43 53.56,542.75 50.76,542.76C40.907,542.76 27.893,542.757 11.72,542.75C11.574,542.748 11.455,542.626 11.455,542.48C11.455,542.449 11.46,542.419 11.47,542.39L63.94,397.52C63.999,397.354 64.159,397.241 64.34,397.24L216.93,397.24C216.951,397.24 216.972,397.241 216.993,397.245C217.177,397.278 217.3,397.46 217.266,397.649C217.263,397.67 217.257,397.69 217.25,397.71L216.51,399.75C216.5,399.775 216.495,399.802 216.495,399.829C216.495,399.949 216.595,400.049 216.715,400.049C216.76,400.049 216.803,400.035 216.84,400.01C219.367,398.377 222.367,397.497 225.84,397.37C230.453,397.203 235.87,397.163 242.09,397.25C242.906,397.263 243.705,397.002 244.36,396.51C290.05,362.47 340.22,333.49 391.97,309.98C406.783,303.253 423.25,296.3 441.37,289.12C459.057,282.113 477.003,275.713 495.21,269.92C495.351,269.875 495.447,269.744 495.447,269.596C495.447,269.56 495.441,269.524 495.43,269.49C491.73,258.337 487.48,247.11 482.68,235.81C480.88,231.59 480.63,223.81 485.15,220.74C489.97,217.46 495.26,216.65 499.58,221.47C500.207,222.17 501.14,224.063 502.38,227.15C507.38,239.583 512.677,251.257 518.27,262.17C518.454,262.523 518.862,262.699 519.24,262.59C552.02,253.083 585.107,245.783 618.5,240.69C623.68,239.903 627.35,241.613 629.51,245.82C629.663,246.126 629.777,246.448 629.85,246.78C630.717,250.833 629.857,254.073 627.27,256.5C625.943,257.747 622.733,259.017 617.64,260.31C590.807,267.123 563.953,275.447 537.08,285.28C537.016,285.306 536.973,285.368 536.973,285.438C536.973,285.495 537.002,285.549 537.05,285.58C541.403,288.233 545.973,289.713 550.76,290.02C562.49,290.77 574.91,287.49 586.05,283.78C596.317,280.367 606.857,276.5 617.67,272.18C620.85,270.92 623.99,271.33 626.74,273.3C629.453,275.227 630.903,278.463 631.09,283.01C631.27,287.35 629.843,290.673 626.81,292.98C626.598,293.139 626.366,293.27 626.12,293.37C612.653,298.75 599.733,304.75 587.36,311.37C580.42,315.09 574.147,319.403 568.54,324.31C565.12,327.31 562.457,330.797 560.55,334.77C560.539,334.793 560.534,334.819 560.534,334.845C560.534,334.943 560.615,335.025 560.714,335.025C560.752,335.025 560.789,335.013 560.82,334.99C561.907,334.183 563.153,333.61 564.56,333.27C603.4,323.823 641.38,317.73 678.5,314.99C699,313.477 719.747,313.22 740.74,314.22C773.3,315.78 806.12,321.31 836.32,333.62C860.5,343.48 881.51,358.06 896.5,379.31C900.32,384.72 902.04,390.55 904.74,396.8C904.856,397.067 905.116,397.241 905.4,397.24L1000,397.23ZM562.49,401.04C562.95,400.01 562.85,398.82 562.41,397.76C558.443,388.04 554.963,378.13 551.97,368.03C546.49,349.53 545.61,330.86 559.93,316.44C563.97,312.373 567.84,309.15 571.54,306.77C586.93,296.87 605.08,288.55 621.08,282.26C621.374,282.144 621.568,281.859 621.568,281.543C621.568,281.443 621.548,281.343 621.51,281.25L621.48,281.16C621.479,281.157 621.477,281.154 621.476,281.151C621.311,280.762 620.851,280.58 620.457,280.747C620.455,280.748 620.452,280.749 620.45,280.75C604.443,287.677 589.07,293.027 574.33,296.8C559.69,300.54 542.8,301.44 530.61,292.49C524.797,288.21 519.653,282.47 515.18,275.27C505.99,260.48 499.28,244.34 492.38,227.48C492.301,227.277 492.104,227.143 491.886,227.143C491.745,227.143 491.609,227.2 491.51,227.3L491.46,227.34C491.112,227.683 491.008,228.212 491.2,228.67C496.193,240.483 500.61,252.183 504.45,263.77C509.71,279.61 514.08,299.41 504.35,314.38C496.81,325.99 484.22,333.97 472,340.24C461.013,345.88 449.48,351.12 437.4,355.96C437.005,356.12 436.783,356.55 436.88,356.97L436.9,357.08C436.965,357.36 437.216,357.561 437.504,357.561C437.589,357.561 437.672,357.544 437.75,357.51C455.15,350.13 476.5,341.95 495.53,339.33C512.14,337.04 526.43,341.2 536.98,354.46C542.687,361.633 547.71,369.833 552.05,379.06C556.877,389.313 560.17,396.637 561.93,401.03C561.973,401.148 562.086,401.227 562.212,401.227C562.334,401.227 562.444,401.153 562.49,401.04ZM622.03,249.54C622.021,249.482 621.97,249.438 621.911,249.438C621.904,249.438 621.897,249.439 621.89,249.44C588.917,254.473 556.477,261.527 524.57,270.6C524.52,270.614 524.472,270.633 524.426,270.656C524.002,270.864 523.823,271.38 524.029,271.798C524.052,271.844 524.079,271.889 524.11,271.93L528.28,277.54C528.71,278.118 529.476,278.343 530.15,278.09C560.37,266.83 590.953,257.383 621.9,249.75C621.979,249.734 622.036,249.664 622.036,249.584C622.036,249.569 622.034,249.554 622.03,249.54ZM259.65,397.03L310.86,397.33C310.899,397.33 310.937,397.316 310.97,397.29C368.41,352.86 432.92,317.23 500.26,289.8C500.569,289.678 500.753,289.352 500.7,289.02L499.08,278.83C499.078,278.818 499.076,278.806 499.073,278.795C499.017,278.549 498.764,278.394 498.513,278.451C498.502,278.454 498.491,278.457 498.48,278.46C413.61,305.67 331.87,344.99 259.55,396.71C259.507,396.744 259.483,396.796 259.483,396.85C259.483,396.944 259.556,397.023 259.65,397.03ZM423.28,414.6C429.96,411.24 438.66,406.87 449.38,401.49C455.59,398.38 460.21,397.25 466.99,397.25C500.27,397.217 518.597,397.24 521.97,397.32C528.5,397.49 533.83,399.62 538.84,404.54C540.653,406.32 546.057,411.333 555.05,419.58C555.129,419.653 555.233,419.693 555.341,419.693C555.485,419.693 555.621,419.621 555.7,419.5C556.647,418.02 556.82,416.527 556.22,415.02C551.88,404.047 547.207,393.55 542.2,383.53C538.927,376.977 535.597,371.39 532.21,366.77C525.72,357.91 517.97,351.89 506.49,351.47C494.02,351.01 481.27,354.67 469.44,358.68C460.107,361.84 450.97,365.253 442.03,368.92C440.637,369.493 439.493,369.843 438.6,369.97C432.39,370.82 428.27,366.41 427.44,360.32C426.733,355.067 428.187,351.137 431.8,348.53C432.039,348.357 432.298,348.213 432.57,348.1C447.397,342.013 460.46,335.903 471.76,329.77C478.267,326.237 484.217,322.13 489.61,317.45C495.04,312.74 498.77,306.94 500.17,300.05C500.173,300.034 500.174,300.018 500.174,300.002C500.174,299.86 500.057,299.742 499.914,299.742C499.882,299.742 499.85,299.748 499.82,299.76C459.5,316.533 420.77,336.15 383.63,358.61C359.69,373.09 336.75,388.893 314.81,406.02C314.596,406.186 314.536,406.489 314.67,406.73L339.91,452.65C339.943,452.702 340.001,452.734 340.062,452.734C340.136,452.734 340.203,452.689 340.23,452.62L360.19,397.53C360.249,397.364 360.409,397.251 360.59,397.25L428.66,397.25C428.661,397.25 428.662,397.25 428.662,397.25C428.876,397.25 429.052,397.426 429.052,397.64C429.052,397.684 429.045,397.728 429.03,397.77L423.02,414.37C423.014,414.388 423.011,414.408 423.011,414.427C423.011,414.531 423.097,414.617 423.201,414.617C423.228,414.617 423.255,414.611 423.28,414.6ZM566.51,342.65C591.923,338.997 617.167,337.063 642.24,336.85C680.03,336.52 718.24,340.62 753.89,353.33C777.55,361.76 800.64,375.82 815.48,396.17C815.95,396.817 816.702,397.201 817.5,397.2L894.15,397.2C894.15,397.2 894.15,397.2 894.151,397.2C894.348,397.2 894.511,397.037 894.511,396.84C894.511,396.799 894.504,396.759 894.49,396.72C892.723,391.713 891.23,388.29 890.01,386.45C866.36,350.63 821.37,334.45 780.85,327.91C760.797,324.67 740.677,323.017 720.49,322.95C668.57,322.79 616.88,330.13 566.45,342.4C566.408,342.407 566.377,342.434 566.38,342.46L566.38,342.53C566.377,342.537 566.375,342.544 566.375,342.551C566.37,342.6 566.416,342.645 566.476,342.651C566.487,342.652 566.499,342.652 566.51,342.65ZM804.06,396.71C792.79,383.39 777.49,373.38 761.36,366.38C741.14,357.6 719.44,352.31 697.28,349.46C672.293,346.247 646.447,345.377 619.74,346.85C600.633,347.903 584.56,349.417 571.52,351.39C565.72,352.27 561.16,352.18 558.23,347.15C558.177,347.055 558.077,346.996 557.968,346.996C557.804,346.996 557.668,347.132 557.668,347.296C557.668,347.308 557.669,347.319 557.67,347.33C558.317,354.503 559.62,361.287 561.58,367.68C564.447,377.033 567.9,386.627 571.94,396.46C572.135,396.937 572.599,397.25 573.11,397.25L618.69,397.25C618.858,397.25 619.015,397.342 619.1,397.49L649.35,452.53C649.393,452.604 649.472,452.65 649.558,452.65C649.655,452.65 649.743,452.59 649.78,452.5L669.69,397.53C669.749,397.364 669.909,397.251 670.09,397.25L738.17,397.25C738.171,397.25 738.172,397.25 738.172,397.25C738.386,397.25 738.562,397.426 738.562,397.64C738.562,397.684 738.555,397.728 738.54,397.77L735.88,405.11C735.87,405.14 735.865,405.171 735.866,405.203C735.871,405.34 735.983,405.449 736.115,405.444C736.148,405.443 736.18,405.435 736.21,405.42C742.103,402.687 746.957,400.89 750.77,400.03C767.63,396.26 780.39,397.26 803.83,397.19C803.863,397.189 803.896,397.183 803.927,397.172C804.082,397.116 804.165,396.946 804.111,396.797C804.099,396.765 804.082,396.736 804.06,396.71ZM28.71,530.96C40.963,531.087 49.357,531.063 53.89,530.89C54.937,530.85 56.43,530.34 58.37,529.36C61.43,527.82 65.377,525.827 70.21,523.38C73.63,521.65 76.56,519.46 77.83,516.04C80.677,508.38 84.517,497.77 89.35,484.21C89.434,483.983 89.654,483.83 89.9,483.83L165.36,483.83C165.636,483.829 165.884,483.653 165.98,483.39L175.66,456.66C175.672,456.625 175.679,456.587 175.679,456.55C175.679,456.369 175.531,456.221 175.35,456.22L100.05,456.22C99.881,456.218 99.743,456.079 99.743,455.91C99.743,455.876 99.749,455.842 99.76,455.81L105.84,439.04C105.946,438.735 106.237,438.529 106.56,438.53L189.51,438.53C189.862,438.531 190.179,438.31 190.3,437.98L200.66,409.38C200.669,409.354 200.674,409.327 200.674,409.3C200.674,409.171 200.569,409.063 200.44,409.06L72.48,409.06C72.301,409.06 72.14,409.177 72.08,409.35L28.26,530.32C28.242,530.371 28.233,530.425 28.233,530.48C28.233,530.742 28.448,530.959 28.71,530.96ZM188.07,463.06C184.937,471.647 176.767,494.16 163.56,530.6C163.553,530.618 163.548,530.636 163.544,530.655C163.516,530.817 163.63,530.975 163.797,531.005C163.814,531.008 163.832,531.01 163.85,531.01C163.883,531.01 171.687,531.013 187.26,531.02C189.26,531.027 191.333,530.5 193.48,529.44C198.207,527.12 202.863,524.7 207.45,522.18C210.103,520.727 211.903,518.7 212.85,516.1C218.43,500.773 223.177,487.753 227.09,477.04C230.223,468.447 238.393,445.933 251.6,409.5C251.607,409.482 251.612,409.464 251.616,409.445C251.644,409.283 251.53,409.125 251.363,409.095C251.346,409.092 251.328,409.09 251.31,409.09C251.277,409.09 243.473,409.087 227.9,409.08C225.9,409.073 223.827,409.6 221.68,410.66C216.953,412.98 212.297,415.4 207.71,417.92C205.057,419.373 203.257,421.4 202.31,424C196.73,439.327 191.983,452.347 188.07,463.06ZM287.68,462.28L327.85,530.39C328.073,530.768 328.477,531.001 328.91,531L349.03,531C350.332,531 351.616,530.695 352.78,530.11C359.347,526.797 364.143,524.387 367.17,522.88C370.557,521.2 372.967,518.37 374.4,514.39C380.527,497.45 393.203,462.467 412.43,409.44C412.435,409.425 412.439,409.409 412.442,409.393C412.472,409.225 412.364,409.064 412.202,409.035C412.185,409.032 412.167,409.03 412.15,409.03L368.83,409.03C368.609,409.029 368.409,409.169 368.33,409.38L342.5,480.69C342.489,480.721 342.473,480.75 342.451,480.774C342.355,480.887 342.179,480.897 342.063,480.797C342.038,480.775 342.016,480.749 342,480.72L302.88,409.55C302.713,409.248 302.395,409.06 302.05,409.06L262.99,409.06C262.649,409.06 262.344,409.273 262.23,409.59L218.4,530.61C218.387,530.645 218.38,530.682 218.38,530.72C218.38,530.895 218.525,531.04 218.7,531.04L261.85,531.04C262.15,531.041 262.419,530.852 262.52,530.57L287.24,462.32C287.249,462.293 287.263,462.268 287.281,462.246C287.364,462.145 287.52,462.132 287.626,462.22C287.647,462.237 287.665,462.257 287.68,462.28ZM371.98,531L415.23,531C415.583,531.001 415.907,530.798 416.06,530.48L431.84,498.18C431.895,498.059 432.016,497.98 432.15,497.98C432.24,497.98 432.326,498.016 432.39,498.08L442.17,507.87C442.374,508.074 442.651,508.19 442.94,508.19L484.59,508.19C484.753,508.192 484.887,508.326 484.887,508.49C484.887,508.524 484.881,508.558 484.87,508.59L476.95,530.45C476.934,530.495 476.925,530.542 476.925,530.59C476.925,530.815 477.11,531 477.335,531C477.337,531 477.338,531 477.34,531L520.39,531C520.676,531 520.933,530.819 521.03,530.55C533.343,496.617 543.82,467.683 552.46,443.75C553.46,440.957 553.55,438.11 552.73,435.21C552.21,433.383 550.473,431.147 547.52,428.5C543.747,425.133 537.82,419.65 529.74,412.05C527.7,410.137 525.263,409.157 522.43,409.11C519.177,409.057 500.033,409.05 465,409.09C462.093,409.09 459.903,409.453 458.43,410.18C447.11,415.787 438.96,419.783 433.98,422.17C424.85,426.55 420.37,430.6 416.01,439.52C400.857,470.553 386.053,500.843 371.6,530.39C371.57,530.449 371.555,530.514 371.555,530.58C371.555,530.81 371.744,531 371.975,531C371.976,531 371.978,531 371.98,531ZM597.2,462.26L637.31,530.36C637.533,530.738 637.937,530.971 638.37,530.97L658.48,530.99C659.782,530.99 661.066,530.685 662.23,530.1C668.797,526.793 673.593,524.387 676.62,522.88C680.007,521.2 682.417,518.373 683.85,514.4C689.983,497.467 702.673,462.507 721.92,409.52C721.925,409.505 721.929,409.489 721.932,409.473C721.962,409.305 721.854,409.144 721.692,409.115C721.675,409.112 721.657,409.11 721.64,409.11L678.34,409.08C678.119,409.079 677.919,409.219 677.84,409.43L651.98,480.7C651.969,480.731 651.953,480.76 651.931,480.784C651.835,480.897 651.659,480.907 651.543,480.807C651.518,480.785 651.496,480.759 651.48,480.73L612.42,409.57C612.253,409.268 611.935,409.08 611.59,409.08L572.55,409.05C572.209,409.05 571.904,409.263 571.79,409.58L527.91,530.52C527.897,530.555 527.89,530.592 527.89,530.63C527.89,530.805 528.035,530.95 528.21,530.95L571.34,530.98C571.64,530.981 571.909,530.792 572.01,530.51L596.76,462.3C596.769,462.273 596.783,462.248 596.801,462.226C596.884,462.125 597.04,462.112 597.146,462.2C597.167,462.217 597.185,462.237 597.2,462.26ZM825.96,501.55C808.02,501.53 782.953,501.527 750.76,501.54C745.12,501.54 741.88,497.62 743.82,492.32C751.453,471.38 756.487,457.533 758.92,450.78C760.95,445.13 762.84,442.56 767.43,439.77C768.903,438.883 771.863,438.46 776.31,438.5C780.797,438.533 805.01,438.54 848.95,438.52C849.116,438.521 849.265,438.416 849.32,438.26L859.75,409.47C859.761,409.438 859.767,409.404 859.767,409.37C859.767,409.201 859.629,409.062 859.46,409.06C857.407,409.073 830.337,409.073 778.25,409.06C770.39,409.053 764.57,409.363 760.79,409.99C744.16,412.75 730.11,419.8 721.07,433.93C718.663,437.69 715.353,445.613 711.14,457.7C710.393,459.84 705.637,472.837 696.87,496.69C693.99,504.54 692.21,511.05 699.6,516.55C701.187,517.73 706.04,521.647 714.16,528.3C716.2,529.98 718.43,530.96 720.76,530.97C730.787,531.01 762.257,531.017 815.17,530.99C815.495,530.989 815.787,530.785 815.9,530.48L826.24,501.94C826.246,501.924 826.25,501.908 826.253,501.891C826.28,501.734 826.168,501.582 826.006,501.554C825.991,501.552 825.975,501.55 825.96,501.55ZM995.83,409.07L865.82,409.07C865.592,409.071 865.389,409.211 865.31,409.42C854.91,438.153 843.99,468.28 832.55,499.8C830.65,505.04 830.04,511.32 834.8,515.19C844.493,523.09 850.317,527.807 852.27,529.34C852.543,529.553 852.834,529.737 853.14,529.89C854.633,530.63 856.837,531 859.75,531C888.23,531.007 918.953,531.007 951.92,531C952.135,531 952.328,530.863 952.4,530.66L962.81,501.91C962.822,501.878 962.828,501.844 962.828,501.81C962.828,501.652 962.698,501.521 962.54,501.52C923.3,501.553 897.627,501.547 885.52,501.5C880.847,501.48 878.613,498.967 878.82,493.96C878.827,493.702 878.874,493.445 878.96,493.2L882.15,484.39C882.275,484.055 882.599,483.831 882.96,483.83L960.93,483.83C961.271,483.83 961.579,483.614 961.7,483.29L971.34,456.67C971.352,456.635 971.358,456.597 971.358,456.56C971.358,456.374 971.206,456.221 971.02,456.22L893.11,456.22C893.108,456.22 893.105,456.22 893.103,456.22C892.867,456.22 892.673,456.026 892.673,455.79C892.673,455.739 892.682,455.688 892.7,455.64L898.72,439.04C898.826,438.735 899.117,438.529 899.44,438.53L985.4,438.53C985.635,438.529 985.844,438.384 985.92,438.17L996.24,409.66C996.257,409.612 996.266,409.561 996.266,409.51C996.266,409.27 996.07,409.072 995.83,409.07ZM757.82,490L814.97,490C815.295,489.999 815.587,489.795 815.7,489.49C820.34,476.87 822.85,464.033 823.23,450.98C823.23,450.973 823.23,450.967 823.23,450.96C823.23,450.576 822.914,450.26 822.53,450.26C822.53,450.26 822.53,450.26 822.53,450.26L772.9,450.26C772.086,450.259 771.354,450.773 771.08,451.54L757.38,489.36C757.371,489.386 757.364,489.412 757.359,489.439C757.314,489.698 757.485,489.948 757.739,489.993C757.766,489.998 757.793,490 757.82,490ZM830.63,471.01C831.717,467.743 834.147,461.007 837.92,450.8C837.93,450.776 837.937,450.75 837.941,450.725C837.981,450.503 837.827,450.288 837.601,450.247C837.577,450.243 837.554,450.24 837.53,450.24L833.21,450.24C832.846,450.24 832.545,450.536 832.54,450.9C832.413,458.067 831.693,464.79 830.38,471.07C830.38,471.072 830.38,471.074 830.379,471.076C830.377,471.114 830.401,471.148 830.434,471.15C830.436,471.15 830.438,471.15 830.44,471.15C830.467,471.15 830.49,471.153 830.51,471.16C830.511,471.161 830.512,471.161 830.513,471.162C830.544,471.172 830.597,471.105 830.629,471.011C830.63,471.011 830.63,471.01 830.63,471.01ZM289.67,489.85L270.69,542.25C270.584,542.555 270.293,542.761 269.97,542.76L202.4,542.76C202.398,542.76 202.397,542.76 202.395,542.76C202.071,542.76 201.805,542.494 201.805,542.17C201.805,542.102 201.817,542.034 201.84,541.97L203.38,537.73C203.383,537.723 203.385,537.716 203.386,537.709C203.396,537.655 203.354,537.602 203.295,537.592C203.29,537.591 203.285,537.59 203.28,537.59L202.88,537.59C202.848,537.591 202.818,537.61 202.8,537.64C196.287,552.587 192.803,567.53 192.35,582.47C191.73,602.71 197.807,620.62 210.58,636.2C224.82,653.57 246.3,665.36 267.45,672.37C285.81,678.45 305.047,682.523 325.16,684.59C363.95,688.57 403.92,686.78 443,681.28C447.76,680.613 451.36,682.24 453.8,686.16C453.838,686.223 453.906,686.262 453.98,686.262C454.095,686.262 454.19,686.167 454.19,686.052C454.19,686.051 454.19,686.051 454.19,686.05C454.04,674.85 451.07,664.03 447.33,653.39C444.237,644.57 440.463,634.767 436.01,623.98C431.12,612.14 449.64,604.08 454.8,617.25C458.807,627.477 463.397,637.873 468.57,648.44C471.823,655.107 475,660.6 478.1,664.92C481.06,669.047 483.647,672.093 485.86,674.06C492.193,679.687 499.93,682.183 509.07,681.55C515.43,681.117 521.31,680.157 526.71,678.67C539.99,675.017 552.78,670.613 565.08,665.46C569.147,663.753 571.883,662.96 573.29,663.08C580.85,663.72 584.86,672.5 580.69,678.92C579.923,680.107 577.357,681.613 572.99,683.44C565.397,686.62 557.527,690.18 549.38,694.12C542.02,697.68 535.41,701.41 529.55,705.31C517.31,713.45 508.73,723.13 510.28,738.91C510.291,739.028 510.391,739.119 510.509,739.119C510.54,739.119 510.571,739.112 510.6,739.1C543.267,725.48 574.94,710.063 605.62,692.85C647.08,669.58 686.79,642.53 722.78,611.29C742.227,594.417 760.127,576.06 776.48,556.22C776.847,555.767 780.11,551.423 786.27,543.19C786.306,543.141 786.325,543.081 786.325,543.02C786.325,542.861 786.194,542.73 786.035,542.73C786.033,542.73 786.032,542.73 786.03,542.73C785.057,542.763 764.223,542.767 723.53,542.74C719.757,542.74 716.35,542.193 713.31,541.1C710.957,540.253 708.073,538.42 704.66,535.6C698.727,530.707 694.48,527.273 691.92,525.3C691.91,525.292 691.9,525.285 691.89,525.278C691.617,525.095 691.243,525.165 691.063,525.433C691.055,525.445 691.047,525.458 691.04,525.47C689.407,528.337 685.95,531.143 680.67,533.89C674.543,537.077 669.507,539.57 665.56,541.37C664.982,541.636 664.371,541.827 663.74,541.94C660.86,542.473 658.86,542.74 657.74,542.74C651.54,542.753 642.78,542.76 631.46,542.76C631.211,542.759 630.979,542.626 630.85,542.41L599.74,489.65C599.69,489.562 599.597,489.507 599.496,489.507C599.375,489.507 599.268,489.585 599.23,489.7L580.11,542.49C580.043,542.665 579.871,542.781 579.68,542.78L460.64,542.78C460.639,542.78 460.638,542.78 460.636,542.78C460.433,542.78 460.266,542.613 460.266,542.41C460.266,542.366 460.274,542.322 460.29,542.28L468.26,520.28C468.267,520.259 468.273,520.238 468.277,520.216C468.314,520.006 468.176,519.802 467.971,519.766C467.948,519.762 467.924,519.76 467.9,519.76L438.39,519.76C437.923,519.76 437.473,519.573 437.14,519.24L435.86,517.96C435.77,517.871 435.648,517.82 435.521,517.82C435.338,517.82 435.17,517.925 435.09,518.09L423.22,542.39C423.109,542.616 422.876,542.76 422.62,542.76L353.59,542.75C353.356,542.75 353.129,542.68 352.94,542.55C352.56,542.31 351.507,542.317 349.78,542.57C348.887,542.703 347.713,542.77 346.26,542.77C341.64,542.757 333.563,542.753 322.03,542.76C321.738,542.76 321.468,542.608 321.32,542.36L290.32,489.79C290.256,489.679 290.137,489.611 290.009,489.611C289.857,489.611 289.721,489.707 289.67,489.85ZM443.62,690.73C427.053,692.543 416.387,693.653 411.62,694.06C371.72,697.47 331.27,696.76 292.27,688.71C257.78,681.59 218.9,665.79 198.37,635.35C179.55,607.45 179.54,574.26 190.79,543.19C190.802,543.155 190.808,543.117 190.808,543.08C190.808,542.894 190.656,542.741 190.47,542.74L147.21,542.74C147.047,542.738 146.913,542.604 146.913,542.44C146.913,542.406 146.919,542.372 146.93,542.34L163.77,495.85C163.781,495.821 163.786,495.791 163.786,495.76C163.786,495.619 163.671,495.502 163.53,495.5L155.29,495.5C154.887,495.499 154.506,495.688 154.26,496.01C143.6,510.05 134.67,524.533 127.47,539.46C116.31,562.58 109.69,588.69 113.79,614.31C114.343,617.783 115.507,621.613 117.28,625.8C120.427,633.227 122.733,638.81 124.2,642.55C125.26,645.25 127.103,648.327 129.73,651.78C141.77,667.59 157.63,679.1 175.21,687.28C203.88,700.64 236.35,706.7 268.26,708.71C326.66,712.4 386.59,704.77 443.65,690.86C443.671,690.847 443.684,690.824 443.684,690.8C443.684,690.764 443.656,690.733 443.62,690.73ZM859.22,543.04C859.239,543.018 859.254,542.993 859.264,542.967C859.309,542.843 859.24,542.702 859.111,542.656C859.085,542.646 859.057,542.641 859.03,542.64C852.42,542.64 847.44,540.67 841.94,535.98C841.453,535.567 837.507,532.383 830.1,526.43C830.059,526.397 830.008,526.379 829.956,526.379C829.86,526.379 829.773,526.44 829.74,526.53L824.05,542.25C823.944,542.555 823.653,542.761 823.33,542.76L798.44,542.76C798.221,542.76 798.016,542.864 797.89,543.04C783.97,563.22 767.21,582.25 749.43,599.44C729.637,618.587 708.007,636.623 684.54,653.55C631.77,691.6 573.28,723.19 512.12,748.42C511.825,748.54 511.662,748.862 511.74,749.17L514.27,758.98C514.272,758.987 514.274,758.994 514.276,759.001C514.404,759.438 514.864,759.694 515.296,759.567C515.304,759.565 515.312,759.563 515.32,759.56C573.8,740.607 629.433,716.33 682.22,686.73C739.49,654.61 794.97,614.77 839.39,566.47C845.597,559.717 852.207,551.907 859.22,543.04ZM391.05,747.54C391.123,747.713 391.24,747.847 391.4,747.94C391.571,748.035 391.775,748.047 391.95,747.97C407.15,741.78 421.39,736.29 436.84,732.36C450.82,728.8 466.49,727.41 478.54,735.01C484.553,738.803 489.753,744.013 494.14,750.64C504.12,765.72 511.59,783.8 518.39,800.38C518.557,800.78 518.863,800.887 519.31,800.7C519.763,800.52 519.907,800.23 519.74,799.83C512.93,783.25 505.54,765.14 502.05,747.39C500.517,739.597 500.557,732.237 502.17,725.31C505.41,711.44 517.53,701.42 529.98,694.13C543.74,686.07 557.73,679.97 572.89,673.7C573.069,673.631 573.206,673.479 573.26,673.29C573.313,673.11 573.303,672.933 573.23,672.76C573.157,672.587 573.04,672.457 572.88,672.37C572.71,672.271 572.507,672.257 572.33,672.33C557.13,678.52 542.89,684.01 527.44,687.94C513.46,691.5 497.79,692.89 485.74,685.29C479.727,681.497 474.527,676.287 470.14,669.66C460.16,654.58 452.69,636.5 445.89,619.92C445.73,619.52 445.423,619.413 444.97,619.6C444.523,619.787 444.38,620.08 444.54,620.48C451.35,637.05 458.74,655.17 462.23,672.91C463.763,680.71 463.723,688.07 462.11,694.99C458.88,708.87 446.75,718.89 434.3,726.18C420.55,734.24 406.56,740.33 391.39,746.61C391.211,746.679 391.074,746.831 391.02,747.02C390.973,747.193 390.983,747.367 391.05,747.54ZM387.65,789.7C422.483,784.587 457.417,776.853 492.45,766.5C492.62,766.446 492.737,766.287 492.737,766.109C492.737,766.035 492.717,765.963 492.68,765.9L488.29,758.45C488.13,758.173 487.788,758.053 487.49,758.17C454.703,770.643 421.413,781.107 387.62,789.56C387.587,789.567 387.563,789.596 387.563,789.63C387.563,789.669 387.596,789.702 387.635,789.702C387.64,789.702 387.645,789.701 387.65,789.7Z" style="fill:rgb(18,57,115);fill-rule:nonzero;"/>
        </g>
        <g transform="matrix(4.16667,0,0,4.16667,34607.6,-20682.8)">
            <path d="M440.92,480.64C444.907,472.48 450.36,461.603 457.28,448.01C460.07,442.54 464.91,438.57 471.35,438.54C475.583,438.52 485.293,438.523 500.48,438.55C504.053,438.557 506.297,439.94 507.21,442.7C507.79,444.46 507.31,447.203 505.77,450.93C505.643,451.23 502.033,461.19 494.94,480.81C494.827,481.115 494.535,481.319 494.21,481.32L441.34,481.32C441.082,481.32 440.87,481.108 440.87,480.85C440.87,480.777 440.887,480.705 440.92,480.64ZM460.1,469.74L485.99,469.74C486.321,469.739 486.617,469.531 486.73,469.22L493.46,450.63C493.47,450.601 493.475,450.571 493.475,450.54C493.475,450.388 493.352,450.263 493.2,450.26L471.13,450.26C469.847,450.261 468.671,450.996 468.11,452.15L459.78,469.21C459.768,469.235 459.759,469.261 459.752,469.288C459.706,469.485 459.825,469.685 460.018,469.731C460.045,469.737 460.072,469.74 460.1,469.74Z" style="fill:rgb(18,57,115);fill-rule:nonzero;"/>
        </g>
        <g transform="matrix(4.16667,0,0,4.16667,34607.6,-20682.8)">
            <path d="M562.49,401.04C562.444,401.153 562.334,401.227 562.212,401.227C562.086,401.227 561.973,401.148 561.93,401.03C560.17,396.637 556.877,389.313 552.05,379.06C547.71,369.833 542.687,361.633 536.98,354.46C526.43,341.2 512.14,337.04 495.53,339.33C476.5,341.95 455.15,350.13 437.75,357.51C437.672,357.544 437.589,357.561 437.504,357.561C437.216,357.561 436.965,357.36 436.9,357.08L436.88,356.97C436.783,356.55 437.005,356.12 437.4,355.96C449.48,351.12 461.013,345.88 472,340.24C484.22,333.97 496.81,325.99 504.35,314.38C514.08,299.41 509.71,279.61 504.45,263.77C500.61,252.183 496.193,240.483 491.2,228.67C491.008,228.212 491.112,227.683 491.46,227.34L491.51,227.3C491.609,227.2 491.745,227.143 491.886,227.143C492.104,227.143 492.301,227.277 492.38,227.48C499.28,244.34 505.99,260.48 515.18,275.27C519.653,282.47 524.797,288.21 530.61,292.49C542.8,301.44 559.69,300.54 574.33,296.8C589.07,293.027 604.443,287.677 620.45,280.75C620.452,280.749 620.455,280.748 620.457,280.747C620.851,280.58 621.311,280.762 621.476,281.151C621.477,281.154 621.479,281.157 621.48,281.16L621.51,281.25C621.548,281.343 621.568,281.443 621.568,281.543C621.568,281.859 621.374,282.144 621.08,282.26C605.08,288.55 586.93,296.87 571.54,306.77C567.84,309.15 563.97,312.373 559.93,316.44C545.61,330.86 546.49,349.53 551.97,368.03C554.963,378.13 558.443,388.04 562.41,397.76C562.85,398.82 562.95,400.01 562.49,401.04Z" style="fill:white;fill-rule:nonzero;"/>
        </g>
        <g transform="matrix(4.16667,0,0,4.16667,34607.6,-20682.8)">
            <path d="M621.9,249.75C590.953,257.383 560.37,266.83 530.15,278.09C529.476,278.343 528.71,278.118 528.28,277.54L524.11,271.93C524.079,271.889 524.052,271.844 524.029,271.798C523.823,271.38 524.002,270.864 524.426,270.656C524.472,270.633 524.52,270.614 524.57,270.6C556.477,261.527 588.917,254.473 621.89,249.44C621.897,249.439 621.904,249.438 621.911,249.438C621.97,249.438 622.021,249.482 622.03,249.54C622.034,249.554 622.036,249.569 622.036,249.584C622.036,249.664 621.979,249.734 621.9,249.75Z" style="fill:white;fill-rule:nonzero;"/>
        </g>
        <g transform="matrix(4.16667,0,0,4.16667,34607.6,-20682.8)">
            <path d="M259.65,397.03C259.556,397.023 259.483,396.944 259.483,396.85C259.483,396.796 259.507,396.744 259.55,396.71C331.87,344.99 413.61,305.67 498.48,278.46C498.491,278.457 498.502,278.454 498.513,278.451C498.764,278.394 499.017,278.549 499.073,278.795C499.076,278.806 499.078,278.818 499.08,278.83L500.7,289.02C500.753,289.352 500.569,289.678 500.26,289.8C432.92,317.23 368.41,352.86 310.97,397.29C310.937,397.316 310.899,397.33 310.86,397.33L259.65,397.03Z" style="fill:white;fill-rule:nonzero;"/>
        </g>
        <g transform="matrix(4.16667,0,0,4.16667,34607.6,-20682.8)">
            <path d="M566.38,342.53L566.38,342.46C566.377,342.434 566.408,342.407 566.45,342.4C616.88,330.13 668.57,322.79 720.49,322.95C740.677,323.017 760.797,324.67 780.85,327.91C821.37,334.45 866.36,350.63 890.01,386.45C891.23,388.29 892.723,391.713 894.49,396.72C894.504,396.759 894.511,396.799 894.511,396.84C894.511,397.037 894.348,397.2 894.151,397.2C894.15,397.2 894.15,397.2 894.15,397.2L817.5,397.2C816.702,397.201 815.95,396.817 815.48,396.17C800.64,375.82 777.55,361.76 753.89,353.33C718.24,340.62 680.03,336.52 642.24,336.85C617.167,337.063 591.923,338.997 566.51,342.65C566.499,342.652 566.487,342.652 566.476,342.651C566.416,342.645 566.37,342.6 566.375,342.551C566.375,342.544 566.377,342.537 566.38,342.53Z" style="fill:white;fill-rule:nonzero;"/>
        </g>
        <g transform="matrix(4.16667,0,0,4.16667,34607.6,-20682.8)">
            <path d="M830.51,471.16C830.49,471.153 830.467,471.15 830.44,471.15C830.438,471.15 830.436,471.15 830.434,471.15C830.401,471.148 830.377,471.114 830.379,471.076C830.38,471.074 830.38,471.072 830.38,471.07C831.693,464.79 832.413,458.067 832.54,450.9C832.545,450.536 832.846,450.24 833.21,450.24L837.53,450.24C837.554,450.24 837.577,450.243 837.601,450.247C837.827,450.288 837.981,450.503 837.941,450.725C837.937,450.75 837.93,450.776 837.92,450.8C834.147,461.007 831.717,467.743 830.63,471.01C830.63,471.01 830.63,471.011 830.629,471.011C830.597,471.105 830.544,471.172 830.513,471.162C830.512,471.161 830.511,471.161 830.51,471.16Z" style="fill:white;fill-rule:nonzero;"/>
        </g>
        <g transform="matrix(4.16667,0,0,4.16667,34607.6,-20682.8)">
            <path d="M443.65,690.86C386.59,704.77 326.66,712.4 268.26,708.71C236.35,706.7 203.88,700.64 175.21,687.28C157.63,679.1 141.77,667.59 129.73,651.78C127.103,648.327 125.26,645.25 124.2,642.55C122.733,638.81 120.427,633.227 117.28,625.8C115.507,621.613 114.343,617.783 113.79,614.31C109.69,588.69 116.31,562.58 127.47,539.46C134.67,524.533 143.6,510.05 154.26,496.01C154.506,495.688 154.887,495.499 155.29,495.5L163.53,495.5C163.671,495.502 163.786,495.619 163.786,495.76C163.786,495.791 163.781,495.821 163.77,495.85L146.93,542.34C146.919,542.372 146.913,542.406 146.913,542.44C146.913,542.604 147.047,542.738 147.21,542.74L190.47,542.74C190.656,542.741 190.808,542.894 190.808,543.08C190.808,543.117 190.802,543.155 190.79,543.19C179.54,574.26 179.55,607.45 198.37,635.35C218.9,665.79 257.78,681.59 292.27,688.71C331.27,696.76 371.72,697.47 411.62,694.06C416.387,693.653 427.053,692.543 443.62,690.73C443.656,690.733 443.684,690.764 443.684,690.8C443.684,690.824 443.671,690.847 443.65,690.86Z" style="fill:white;fill-rule:nonzero;"/>
        </g>
        <g transform="matrix(4.16667,0,0,4.16667,34607.6,-20682.8)">
            <path d="M859.22,543.04C852.207,551.907 845.597,559.717 839.39,566.47C794.97,614.77 739.49,654.61 682.22,686.73C629.433,716.33 573.8,740.607 515.32,759.56C515.312,759.563 515.304,759.565 515.296,759.567C514.864,759.694 514.404,759.438 514.276,759.001C514.274,758.994 514.272,758.987 514.27,758.98L511.74,749.17C511.662,748.862 511.825,748.54 512.12,748.42C573.28,723.19 631.77,691.6 684.54,653.55C708.007,636.623 729.637,618.587 749.43,599.44C767.21,582.25 783.97,563.22 797.89,543.04C798.016,542.864 798.221,542.76 798.44,542.76L823.33,542.76C823.653,542.761 823.944,542.555 824.05,542.25L829.74,526.53C829.773,526.44 829.86,526.379 829.956,526.379C830.008,526.379 830.059,526.397 830.1,526.43C837.507,532.383 841.453,535.567 841.94,535.98C847.44,540.67 852.42,542.64 859.03,542.64C859.057,542.641 859.085,542.646 859.111,542.656C859.24,542.702 859.309,542.843 859.264,542.967C859.254,542.993 859.239,543.018 859.22,543.04Z" style="fill:white;fill-rule:nonzero;"/>
        </g>
        <g transform="matrix(4.16667,0,0,4.16667,34607.6,-20682.8)">
            <path d="M444.97,619.6C445.423,619.413 445.73,619.52 445.89,619.92C452.69,636.5 460.16,654.58 470.14,669.66C474.527,676.287 479.727,681.497 485.74,685.29C497.79,692.89 513.46,691.5 527.44,687.94C542.89,684.01 557.13,678.52 572.33,672.33C572.507,672.257 572.71,672.271 572.88,672.37C573.04,672.457 573.157,672.587 573.23,672.76C573.303,672.933 573.313,673.11 573.26,673.29C573.206,673.479 573.069,673.631 572.89,673.7C557.73,679.97 543.74,686.07 529.98,694.13C517.53,701.42 505.41,711.44 502.17,725.31C500.557,732.237 500.517,739.597 502.05,747.39C505.54,765.14 512.93,783.25 519.74,799.83C519.907,800.23 519.763,800.52 519.31,800.7C518.863,800.887 518.557,800.78 518.39,800.38C511.59,783.8 504.12,765.72 494.14,750.64C489.753,744.013 484.553,738.803 478.54,735.01C466.49,727.41 450.82,728.8 436.84,732.36C421.39,736.29 407.15,741.78 391.95,747.97C391.775,748.047 391.571,748.035 391.4,747.94C391.24,747.847 391.123,747.713 391.05,747.54C390.983,747.367 390.973,747.193 391.02,747.02C391.074,746.831 391.211,746.679 391.39,746.61C406.56,740.33 420.55,734.24 434.3,726.18C446.75,718.89 458.88,708.87 462.11,694.99C463.723,688.07 463.763,680.71 462.23,672.91C458.74,655.17 451.35,637.05 444.54,620.48C444.38,620.08 444.523,619.787 444.97,619.6Z" style="fill:white;fill-rule:nonzero;"/>
        </g>
        <g transform="matrix(4.16667,0,0,4.16667,34607.6,-20682.8)">
            <path d="M387.62,789.56C421.413,781.107 454.703,770.643 487.49,758.17C487.788,758.053 488.13,758.173 488.29,758.45L492.68,765.9C492.717,765.963 492.737,766.035 492.737,766.109C492.737,766.287 492.62,766.446 492.45,766.5C457.417,776.853 422.483,784.587 387.65,789.7C387.645,789.701 387.64,789.702 387.635,789.702C387.596,789.702 387.563,789.669 387.563,789.63C387.563,789.596 387.587,789.567 387.62,789.56Z" style="fill:white;fill-rule:nonzero;"/>
        </g>
    </g>
</svg>
